<svg xmlns="http://www.w3.org/2000/svg" width="63.496" height="64.599" viewBox="0 0 63.496 64.599">
  <g id="Group_17" data-name="Group 17" transform="translate(-2971.577 -2712.347)">
    <path id="Path_41" data-name="Path 41" d="M130.737,44.193v36c0,3.154-1.592,4.755-4.734,4.755q-21.408,0-42.815,0c-2.37,0-3.98-1.13-4.458-3.163a6.541,6.541,0,0,1-.113-1.482c-.007-14.274.033-28.549-.039-42.823a4.42,4.42,0,0,1,4.668-4.692c11.284.067,22.569.027,33.853.027h1.153a11.865,11.865,0,0,1,4.739-10.048,11.2,11.2,0,0,1,7.668-2.4,11.907,11.907,0,0,1,11.353,10.68,12.053,12.053,0,0,1-11.275,13.146M123.631,42.4c-.209.428-.449.924-.7,1.416A15.186,15.186,0,0,1,111.3,52.58c-2.725.439-5.482.682-8.217,1.064a17.128,17.128,0,0,0-11.665,6.589,20.6,20.6,0,0,1-2.676,2.822c-2.225,1.956-4.732,3.05-7.876,2.042v4.529c0,1.572.275,1.866,1.857,1.748a3.078,3.078,0,0,0,1.634-.492,9.373,9.373,0,0,0,2.225-2.28c2.4-3.954,8.154-4.844,11.624-3.02a4.173,4.173,0,0,1,1.91,6.076,10.71,10.71,0,0,0-.861,1.877c-.936,3.2-.017,6.1,1.573,8.87a.622.622,0,0,0,.452.268c1.51.02,3.021.012,4.587.012a2.473,2.473,0,0,0-.088-.4A16.675,16.675,0,0,1,104.5,74.1c.236-3.446.449-6.893.7-10.338a6.211,6.211,0,0,1,3.553-5.409,13.427,13.427,0,0,1,10.224-.825,33.149,33.149,0,0,1,8.548,4.316c.267.171.542.33.773.47.75-2.343-.407-3.754-2.21-4.839-.423-.256-.9-.42-1.33-.667A16.627,16.627,0,0,1,122.31,55.3a3.157,3.157,0,0,1-.862-3.978,7.266,7.266,0,0,1,1.642-2.352c1.514-1.321,3.154-2.5,4.784-3.68.473-.342.707-.65.55-1.1L123.631,42.4m-14.557-7.338c-.839,4.475-3.648,7.1-7.628,8.666a24.922,24.922,0,0,1-3.379,1.11c-3.466.816-6.961,1.511-10.422,2.35a11.278,11.278,0,0,0-6.156,3.19,2.588,2.588,0,0,0-.593,1.537c-.054,3.18-.027,6.362-.026,9.543,0,1.145.161,1.342,1.281,1.644a4.079,4.079,0,0,0,3.691-.764,28.229,28.229,0,0,0,4-3.8,18.632,18.632,0,0,1,10.85-6.709c3.142-.606,6.339-.931,9.515-1.346,5.748-.749,9.363-4.106,11.454-9.329a.822.822,0,0,0-.118-.713,12.354,12.354,0,0,1-2.814-4.922.754.754,0,0,0-.546-.438c-3.011-.027-6.022-.019-9.113-.019M128.448,72.5c-1.58-.847-2.965-1.468-4.22-2.289-2.219-1.453-4.339-3.055-6.541-4.535a11.382,11.382,0,0,0-2.439-1.212c-1.01-.37-1.4-.115-1.76.881-.121.338-.259.669-.4,1a12.349,12.349,0,0,0-.77,7.864c.746,3.114,2.5,5.694,4.349,8.223a.892.892,0,0,0,.642.242c3.07.014,6.141.024,9.211,0a1.8,1.8,0,0,0,1.921-1.931c.021-1.3.006-2.6.006-3.9V72.5M139.785,32.2a9.629,9.629,0,1,0-9.543,9.663,9.654,9.654,0,0,0,9.543-9.663M113.97,82.687c-.725-1.189-1.418-2.245-2.031-3.348a15.417,15.417,0,0,1-2.122-9.617,20.438,20.438,0,0,1,1.945-6.042,2.62,2.62,0,0,1,2.7-1.571,6.637,6.637,0,0,1,2.389.562,32.893,32.893,0,0,1,3.775,2.223c2.021,1.351,3.979,2.794,5.99,4.16a15.223,15.223,0,0,0,1.834.91c0-1.189-.081-2.19.021-3.172a2.281,2.281,0,0,0-1.414-2.6c-2.583-1.3-5.015-2.92-7.651-4.086a10.842,10.842,0,0,0-9.466.179,4.023,4.023,0,0,0-2.458,3.552c-.253,3.692-.562,7.382-.762,11.078a12.45,12.45,0,0,0,1.531,7.189,1.253,1.253,0,0,0,.868.557c1.574.056,3.149.026,4.855.026M80.913,47.665c.882-.49,1.631-.957,2.422-1.333a37.883,37.883,0,0,1,8.823-2.485,42.246,42.246,0,0,0,9.165-2.5,8.98,8.98,0,0,0,5.14-5.217c.112-.32.164-.662.263-1.068-4.266,0-8.409-.006-12.553.017a.9.9,0,0,0-.619.4,19.049,19.049,0,0,1-7.842,7.188,42.721,42.721,0,0,1-4.8,1.757ZM80.87,73.531c0,.862.046,1.715-.016,2.56-.049.665.269.849.833.962a6.847,6.847,0,0,0,5-1.016c1.206-.725,2.329-1.585,3.5-2.363a9.041,9.041,0,0,1,1.577-.9,1.729,1.729,0,0,1,2.43,1.161,6.392,6.392,0,0,1,.244,1.713,15.954,15.954,0,0,0,1.411,6.431,1.085,1.085,0,0,0,.647.58,12.585,12.585,0,0,0,1.82.027c-.15-.344-.256-.591-.364-.837a12.144,12.144,0,0,1-1.212-7.328,20.182,20.182,0,0,1,1.4-3.95c.589-1.374.362-2.261-.953-2.963a5.314,5.314,0,0,0-.837-.353c-2.4-.789-6.191-.306-7.983,2.77a6.631,6.631,0,0,1-5.355,3.6,18.266,18.266,0,0,1-2.145-.093M92.082,75.1c-3.383,2.448-6.6,5.13-11.213,4.1,0,.388,0,.659,0,.929-.005,1.985.565,2.555,2.561,2.556H93.5c-.342-1.266-.736-2.443-.964-3.652-.232-1.235-.3-2.5-.457-3.934M80.92,41.766c2.774.209,9.222-4.109,10.015-6.7-2.741,0-5.473-.017-8.2.01a1.659,1.659,0,0,0-1.79,1.5c-.076,1.727-.022,3.46-.022,5.185m47.5,5.848a17.512,17.512,0,0,0-4.452,3.743c-.912,1.205-.778,2.059.516,2.79,1.277.722,2.612,1.339,3.936,2.009Z" transform="translate(2893 2692)" fill="#2b9440"/>
    <path id="Path_42" data-name="Path 42" d="M106.867,76.53a1.138,1.138,0,0,1-1.14,1.152,1.134,1.134,0,0,1,.047-2.268,1.137,1.137,0,0,1,1.093,1.116" transform="translate(2886.247 2677.729)" fill="#2b9440"/>
    <path id="Path_43" data-name="Path 43" d="M109.211,70.41a1.125,1.125,0,1,1,2.248.085,1.125,1.125,0,0,1-2.248-.085" transform="translate(2885.061 2679.309)" fill="#2b9440"/>
    <path id="Path_44" data-name="Path 44" d="M114.2,54.184a13.626,13.626,0,0,1-1.8-.245,1.453,1.453,0,0,1-.615-2.653,10.663,10.663,0,0,1,2.8-1.56,4.769,4.769,0,0,0,3.036-3.551,5.8,5.8,0,0,1,4.435-4.55c3.361-.793,5.876,1.734,5.021,5.082a7.791,7.791,0,0,1-4.729,5.695,27.206,27.206,0,0,1-8.15,1.782m1.988-2.656.139.322c1.81-.552,3.65-1.019,5.421-1.676,2-.739,2.818-2.48,3.192-4.421.246-1.277-.556-2.055-1.867-1.991a3.444,3.444,0,0,0-3.12,2.569,7.6,7.6,0,0,1-3.764,5.2" transform="translate(2884.563 2686.524)" fill="#2b9440"/>
    <path id="Path_45" data-name="Path 45" d="M90.034,67.373A1.116,1.116,0,0,1,88.941,68.5a1.133,1.133,0,0,1,.012-2.265,1.118,1.118,0,0,1,1.082,1.139" transform="translate(2890.606 2680.108)" fill="#2b9440"/>
    <path id="Path_46" data-name="Path 46" d="M107.3,55.544a1.119,1.119,0,1,1-1.125,1.082,1.1,1.1,0,0,1,1.125-1.082" transform="translate(2885.847 2682.878)" fill="#2b9440"/>
    <path id="Path_47" data-name="Path 47" d="M130.194,89.221a1.119,1.119,0,0,1,1.158,1.06,1.135,1.135,0,1,1-1.158-1.06" transform="translate(2879.91 2674.15)" fill="#2b9440"/>
    <path id="Path_48" data-name="Path 48" d="M139,97.967a1.133,1.133,0,0,1-2.265-.027,1.134,1.134,0,0,1,2.265.027" transform="translate(2877.927 2672.169)" fill="#2b9440"/>
    <path id="Path_49" data-name="Path 49" d="M152.584,28.471a4.873,4.873,0,0,1-.2.57c-1.119,2.373-2.226,4.751-3.387,7.1a2.256,2.256,0,0,1-.956.959c-2.327,1.147-4.683,2.236-7.026,3.349a1.19,1.19,0,0,1-1.654-1.684c1.106-2.317,2.182-4.649,3.314-6.953a2.258,2.258,0,0,1,.929-.981c2.374-1.176,4.774-2.3,7.173-3.426a1.164,1.164,0,0,1,1.809,1.064M147.525,34l1.542-3.279L145.776,32.3l1.749,1.7m-3.383-.032-1.489,3.186,3.135-1.486-1.646-1.7" transform="translate(2877.308 2690.214)" fill="#2b9440"/>
    <path id="Path_50" data-name="Path 50" d="M103.818,44.532a1.109,1.109,0,0,1-1.3.984,1.055,1.055,0,0,1-.951-1.161,1.111,1.111,0,0,1,1.252-1.039,1.136,1.136,0,0,1,1,1.216" transform="translate(2887.041 2686.049)" fill="#2b9440"/>
  </g>
</svg>
