<svg xmlns="http://www.w3.org/2000/svg" xmlns:xlink="http://www.w3.org/1999/xlink" width="90.175" height="78.8" viewBox="0 0 90.175 78.8">
  <defs>
    <clipPath id="clip-path">
      <rect id="Rectangle_81" data-name="Rectangle 81" width="90.175" height="78.8" fill="none"/>
    </clipPath>
  </defs>
  <g id="Group_48" data-name="Group 48" transform="translate(0 0)">
    <g id="Group_47" data-name="Group 47" transform="translate(0 0)" clip-path="url(#clip-path)">
      <path id="Path_120" data-name="Path 120" d="M24.351,29.833c0,7.914-4.757,14.332-10.627,14.332S3.1,37.748,3.1,29.833,7.855,15.5,13.723,15.5s10.627,6.418,10.627,14.332" transform="translate(2.501 12.514)" fill="#52c36e"/>
      <path id="Path_121" data-name="Path 121" d="M47.993,14.429c0,5.858-3.559,10.605-7.949,10.605S32.1,20.287,32.1,14.429,35.655,3.824,40.045,3.824s7.949,4.748,7.949,10.605" transform="translate(25.912 3.087)" fill="#52c36e"/>
      <path id="Path_122" data-name="Path 122" d="M53.134,33.2c0,5.811-3.68,10.522-8.22,10.522s-8.22-4.712-8.22-10.522,3.68-10.522,8.22-10.522,8.22,4.712,8.22,10.522" transform="translate(29.625 18.305)" fill="#52c36e"/>
      <path id="Path_123" data-name="Path 123" d="M84.856,17.8a25.745,25.745,0,0,0-9.5-.352l-.146.027c0-.168,0-.34,0-.5,0-7.253-5.192-12.879-9.658-12.879s-9.66,5.626-9.66,12.879c0,1.144.007,2.422.114,3.712-2.758.425-5.254.8-7.338,1.1l-.005-1.807c4.645-.8,4.661-5.328,4.661-7.875,0-4.115-3-8.007-6.167-8.007S40.987,7.983,40.987,12.1c0,2.548.016,7.079,4.667,7.875l.007,2.239c-1.7.242-2.823.4-3.143.439H36.866a83.569,83.569,0,0,1-12.059-1.82l-.005-1.31c5.935-.792,5.948-6.306,5.948-9.707C30.75,4.287,26.738,0,23.288,0s-7.461,4.287-7.461,9.814c0,3.405.011,8.93,5.968,9.711l0,.544A47.9,47.9,0,0,1,15.53,17.88c-4.085-1.8-7.748-2.037-10.891-.7A7.842,7.842,0,0,0,0,24.155V72.789A6.018,6.018,0,0,0,6.011,78.8H84.164a6.018,6.018,0,0,0,6.011-6.013V24.583A6.989,6.989,0,0,0,84.856,17.8M65.549,7.1c2.617,0,6.653,4.238,6.653,9.872,0,6.29-.768,9.263-5.138,9.78l-.013-9.781a1.5,1.5,0,0,0-1.5-1.5h0a1.5,1.5,0,0,0-1.5,1.5l.013,9.783c-4.392-.51-5.162-3.483-5.162-9.783,0-5.633,4.036-9.872,6.653-9.872m-21.554,5c0-2.937,2.05-5,3.159-5s3.161,2.062,3.161,5c0,4.115-.562,5-3.161,5s-3.159-.887-3.159-5M18.832,9.814c0-3.884,2.7-6.806,4.455-6.806s4.457,2.922,4.457,6.806c0,5.108-.645,6.806-4.457,6.806s-4.455-1.7-4.455-6.806M6.011,75.8a3.011,3.011,0,0,1-3.006-3.007L3,24.215a4.807,4.807,0,0,1,2.814-4.267c2.346-1,5.207-.772,8.5.685a52.326,52.326,0,0,0,8.628,2.847A86.421,86.421,0,0,0,34.8,25.494c1.22,1.782,5.693,9.1,3.615,17.8-2.265,9.487-23.3,29.492-26.51,32.505ZM41.589,42.787a25.888,25.888,0,0,0-3.145-17.13h3.542C46.405,30.21,56.543,41.851,56.9,47.914c.193,3.28-1.363,8.14-2.868,12.839-1.825,5.7-3.56,11.14-2.819,15.042H16.275C22.5,69.8,37.249,54.949,40.792,45.7M87.17,72.789A3.011,3.011,0,0,1,84.164,75.8H54.305c-.963-3.013.911-8.887,2.588-14.124,1.589-4.963,3.232-10.094,3.006-13.935-.4-6.862-9.9-17.869-14.177-22.5,2.451-.347,6.271-.9,10.777-1.592.833,3.063,2.821,5.673,7.562,6.121l.005,4.831a1.5,1.5,0,0,0,1.5,1.5h0a1.5,1.5,0,0,0,1.5-1.506l-.005-4.829c6.275-.607,7.712-5.014,8.037-9.223l.721-.132a22.785,22.785,0,0,1,8.326.305,3.949,3.949,0,0,1,2.969,3.25,3.878,3.878,0,0,1,.049.614Zm-13.2-34.746c-4.468,0-9.66,5.626-9.66,12.879,0,4.847.013,12.03,8.175,12.8l0,1.825a1.5,1.5,0,0,0,1.5,1.5h0a1.5,1.5,0,0,0,1.5-1.506l0-1.824c8.128-.788,8.137-7.958,8.137-12.8,0-7.253-5.191-12.879-9.657-12.879M75.482,60.7l-.014-9.781a1.5,1.5,0,0,0-1.5-1.5h0a1.5,1.5,0,0,0-1.5,1.5l.014,9.783c-4.394-.508-5.165-3.483-5.165-9.783,0-5.633,4.038-9.872,6.655-9.872s6.651,4.238,6.651,9.872c0,6.288-.766,9.261-5.135,9.78M17.815,62.527l-.007-5.044c10.345-.811,10.372-9.837,10.372-15.917,0-9.011-6.394-16-11.9-16s-11.9,6.987-11.9,16c0,6.089.027,15.129,10.414,15.919l.007,5.044a1.5,1.5,0,0,0,1.5,1.5h0a1.5,1.5,0,0,0,1.5-1.5M16.284,40.061h0a1.506,1.506,0,0,0-1.5,1.5L14.8,54.493c-6.286-.521-7.4-4.567-7.4-12.928,0-7.537,5.31-12.993,8.89-12.993s8.89,5.456,8.89,12.993c0,8.344-1.117,12.391-7.37,12.924l-.016-12.926a1.5,1.5,0,0,0-1.5-1.5" transform="translate(0 -0.001)" fill="#393939"/>
    </g>
  </g>
</svg>
