<svg xmlns="http://www.w3.org/2000/svg" xmlns:xlink="http://www.w3.org/1999/xlink" width="75.47" height="76.065" viewBox="0 0 75.47 76.065">
  <defs>
    <clipPath id="clip-path">
      <rect id="Rectangle_80" data-name="Rectangle 80" width="75.47" height="76.065" fill="none"/>
    </clipPath>
  </defs>
  <g id="Group_46" data-name="Group 46" transform="translate(40 -10)">
    <g id="Group_45" data-name="Group 45" transform="translate(-40 10)" clip-path="url(#clip-path)">
      <path id="Path_117" data-name="Path 117" d="M4.257,71.829c-.863,5.422-1.443,10.8-.363,16.149,2.042,1.009,5.384.742,7.708.833,3.341.131,6.682.143,9.955.4,8.94.715,18.085.033,27.03,0,6.507-.027,13.964-.167,19.372-4.24,2.6-1.957,5.291-4.777,6.459-7.891,1.148-3.059.158-6.248-.634-9.251-2.148-8.145-9.533-8.811-16.461-10.833-2.368-.691-8.442-2.758-6.2-6.5C53,47.351,60.871,48.5,63.891,48.249a53.319,53.319,0,0,0,8.5-.994c2.317-.606,1.773-1.981,1.773-4.355,0-1.85.62-4.162-1.291-5.02-1.531-.687-4.618-.221-6.364-.388-7.584-.727-14.96-1.4-22.632-1.425-5.293-.014-13.006.742-16.941,4.676-3.342,3.342-3.105,8.589-1.553,12.763,2.206,5.934,7.079,5.579,11.841,8.226,1.5.831,4.4,2.248,5.022,3.9.941,2.486-1.576,4.791-3.723,5.343-4.212,1.082-9.633.612-13.99.406-4.589-.217-9.149-.073-13.726.045-2.247.058-5.295-.418-6.554.4" transform="translate(-1.414 -15.312)" fill="#52c36e"/>
      <path id="Path_118" data-name="Path 118" d="M70.754,19.127h-4.57v-3.86C72.98,12.352,71.607.239,63.973,0c-7.635.24-9.005,12.353-2.211,15.267v3.86H47.022v-3.86C53.818,12.352,52.444.239,44.81,0,37.175.24,35.805,12.353,42.6,15.267v3.86H19.959c1.273-7.606-2.612-16.383-8.839-16.31-6.227-.073-10.113,8.706-8.839,16.31H0V76.065c10.387,0,47.539,0,57.193,0A18.352,18.352,0,0,0,75.47,57.679V19.127ZM63.973,4.448c1.046,0,2.211,1.4,2.211,3.41s-1.165,3.41-2.211,3.41-2.211-1.4-2.211-3.41,1.165-3.41,2.211-3.41m-19.162,0c1.046,0,2.211,1.4,2.211,3.41s-1.165,3.41-2.211,3.41S42.6,9.868,42.6,7.859s1.165-3.41,2.211-3.41M11.121,7.265c2.192,0,4.634,3.649,4.634,8.885s-2.442,8.885-4.634,8.885S6.486,21.386,6.486,16.15s2.443-8.885,4.635-8.885m-6.7,17.946A9.022,9.022,0,0,0,8.91,29.1v9.578h4.422V29.1a9.861,9.861,0,0,0,5.354-5.523h6.347a15.21,15.21,0,0,0,12.408,25.8,2.224,2.224,0,0,1,0,4.448H4.422Zm52.77,46.405H4.422V58.272H37.44a6.673,6.673,0,0,0,0-13.345H35.671a10.676,10.676,0,0,1,0-21.351H71.048V30.4H53.213c-8.8.367-8.8,12.979,0,13.345h3.98c18.379.763,18.379,27.112,0,27.875m0-32.324h-3.98a2.224,2.224,0,0,1,0-4.448H71.048V45.7a18.2,18.2,0,0,0-13.856-6.408" fill="#393939"/>
      <path id="Path_119" data-name="Path 119" d="M97.306,83.666H96.8v4.448a5.073,5.073,0,1,1,.506,10.125H93.788v4.448h3.518c12.544-.523,12.538-18.5,0-19.022" transform="translate(-40.134 -35.519)" fill="#393939"/>
      <rect id="Rectangle_79" data-name="Rectangle 79" width="12.95" height="4.448" transform="translate(31.713 62.72)" fill="#393939"/>
    </g>
  </g>
</svg>
