<svg xmlns="http://www.w3.org/2000/svg" xmlns:xlink="http://www.w3.org/1999/xlink" width="198" height="55.272" viewBox="0 0 198 55.272">
  <defs>
    <clipPath id="clip-path">
      <rect id="Rectángulo_37" data-name="Rectángulo 37" width="198" height="55.272" transform="translate(0 0)" fill="none"/>
    </clipPath>
  </defs>
  <g id="Grupo_10" data-name="Grupo 10" clip-path="url(#clip-path)">
    <path id="Trazado_23" data-name="Trazado 23" d="M176.707.19c17.894-2.127,20.255,24.852,3.539,26.587C161.825,28.689,159.773,2.2,176.707.19m1.246,5.328c-10.389.529-9.631,16.755,1.1,15.972,10.169-.744,9.3-16.5-1.1-15.972" transform="translate(-87.471 -0.038)" fill="#fff"/>
    <path id="Trazado_24" data-name="Trazado 24" d="M68.018,59.736c17.652-1.857,20.132,24.7,3.542,26.6-18.817,2.155-20.491-24.812-3.542-26.6m7.356,7.847c-6.56-7.055-18.344,2.163-12.2,10.352,6.537,8.714,19.856-2.126,12.2-10.352" transform="translate(-29.825 -31.593)" fill="#fff"/>
    <path id="Trazado_25" data-name="Trazado 25" d="M361.373,59.592c.338.324-1.532,5.15-2.264,5.763h-8.027V70.3H358.9c-.256.955-1.449,4.791-2.05,5.154-1.031.622-5.476-.1-5.774.2l0,5.354h10.291l-1.646,5.351h-14V59.592Z" transform="translate(-183.131 -31.566)" fill="#fff"/>
    <path id="Trazado_26" data-name="Trazado 26" d="M189.027,83.747a37.989,37.989,0,0,1-4.664,2.54,13.425,13.425,0,1,1,.467-25.209c1.285.47,4.79,2.181,4.052,3.773A23.276,23.276,0,0,1,185.9,67.7c-.768.2-2.086-1.054-3.013-1.387a7.894,7.894,0,0,0-9.557,11.617c1.911,2.983,5.123,3.909,8.513,3.373,1.545-.245,2.723-1.925,4.051-1.564.671.183,3.629,3.16,3.128,4.014" transform="translate(-88.223 -31.893)" fill="#fff"/>
    <path id="Trazado_27" data-name="Trazado 27" d="M400.623,62.19a10.375,10.375,0,0,1,2.2,5.62c-1.386-.238-3.908.369-5.092-.049-.868-.307-.433-2.648-3.349-2.457a2.556,2.556,0,0,0-2.055,3.747c.648,1.317,5.362,2.324,6.93,3.358,7.719,5.083,1.629,16.044-7.149,13.733-3.037-.8-5.967-4.878-5.34-8.042,1.344.206,3.477-.327,4.671.067.808.267.855,1.606,1.518,2.184,2.073,1.812,5-.454,4.037-3.213-.539-1.539-9.6-2.3-10.221-8.3-.845-8.141,8.742-12.341,13.852-6.65" transform="translate(-204.822 -31.555)" fill="#fff"/>
    <path id="Trazado_28" data-name="Trazado 28" d="M307.154,87.278,291.1,73.693V87.072c0,.926-5.763.926-5.763,0V61.346l1.46.392c1.984,2.7,20.357,17.762,20.357,19.161Z" transform="translate(-151.141 -32.495)" fill="#fff"/>
    <path id="Trazado_29" data-name="Trazado 29" d="M223.193,87.685l11.736-26.348,12.14,26.348h-5.763c-1.8-4.117-3.492-8.826-5.554-12.781-.224-.43-.037-1.038-.823-.806a24.886,24.886,0,0,0-1.764,4.257c.081.937,2.75,4.411,1.967,5.211-.994.214-3.832-.329-4.463.069-.436.272-1.493,4.049-1.712,4.049Z" transform="translate(-118.223 -32.49)" fill="#fff"/>
    <path id="Trazado_30" data-name="Trazado 30" d="M0,27.3,11.732.966,23.462,27.3c-1.541-.231-4.758.59-5.788-.588l-5.942-13c-2.844,3.887-1.465,5.579.206,9.468-4.152.835-3.973-1.467-5.973,2.9a7.837,7.837,0,0,0-.2,1.217Z" transform="translate(0 -0.512)" fill="#0b9440"/>
    <path id="Trazado_31" data-name="Trazado 31" d="M131.73.074l-2.057,5.765h-6.584V26.831h-5.354V5.839H111.15c-.176-2.087,1.7-3.626,1.646-5.763Z" transform="translate(-58.869 -0.04)" fill="#fff"/>
    <path id="Trazado_32" data-name="Trazado 32" d="M72.283,21.029H82.574V27.2H66.52V.034c.889.123,5.763-.418,5.763.618Z" transform="translate(-35.235 -0.001)" fill="#fff"/>
    <path id="Trazado_33" data-name="Trazado 33" d="M130.514,59.592V81h10.7v5.351H125.163V59.592Z" transform="translate(-66.298 -31.566)" fill="#fff"/>
    <path id="Trazado_34" data-name="Trazado 34" d="M5.763,60.467c2.378,6.817,6,13.256,8.564,20.062.126.906-2.254,6.273-2.6,6.276L0,60.467Z" transform="translate(0 -32.029)" fill="#0b9440"/>
    <path id="Trazado_35" data-name="Trazado 35" d="M39.205,60.383c-1.642,4.552-3.6,9.086-5.691,13.447-.183.383-1.031,2.886-1.715,2.194.068-2.188-2.1-4.333-2.079-6.389.011-.807,3.643-8.758,4.129-9.053,1.027-.625,4.028.032,5.354-.2" transform="translate(-15.743 -31.943)" fill="#0b9440"/>
    <path id="Trazado_36" data-name="Trazado 36" d="M324.824,60.467v14c-.719.18-.823-.3-1.237-.615a35.465,35.465,0,0,1-4.114-4.119V60.467Z" transform="translate(-169.222 -32.029)" fill="#fff"/>
  </g>
</svg>
