<svg xmlns="http://www.w3.org/2000/svg" width="19.785" height="25.719" viewBox="0 0 19.785 25.719">
  <path id="Path_135" data-name="Path 135" d="M49.1,32.713h-.007A9.891,9.891,0,0,0,39.2,42.6a7.764,7.764,0,0,0,.443,2.328c1.349,4.314,6.382,10.566,8.5,13.058a1.238,1.238,0,0,0,1.744.156,1.22,1.22,0,0,0,.156-.156c2.477-2.922,8.942-10.971,8.942-15.386a9.891,9.891,0,0,0-9.891-9.89m0,12.865,0,0a3.214,3.214,0,1,1,3.218-3.211,3.215,3.215,0,0,1-3.218,3.211" transform="translate(-39.202 -32.713)" fill="#51c36e"/>
</svg>
