<?xml version="1.0" encoding="UTF-8"?>
<svg id="Layer_1" data-name="Layer 1" xmlns="http://www.w3.org/2000/svg" viewBox="0 0 70.27 70.27">
  <defs>
    <style>
      .cls-1 {
        fill: #363636;
      }

      .cls-2, .cls-3 {
        fill: #52c36e;
      }

      .cls-3 {
        isolation: isolate;
        opacity: .11;
      }
    </style>
  </defs>
  <path id="Path_127" data-name="Path 127" class="cls-3" d="M35.66,4.64c9.21-.35,17.27,5.38,23.1,12.5,5.95,7.26,10.32,16.42,8.06,25.54-2.23,8.96-10.61,14.29-18.94,18.26-8.27,3.94-17.44,6.53-25.95,3.13-9.21-3.68-17.31-11.27-18.88-21.06-1.5-9.29,5.5-17.04,11.59-24.21,5.76-6.77,12.14-13.83,21.02-14.17"/>
  <g>
    <path class="cls-1" d="M27.91,11.37c1.48.12,1.24,2.08,1.24,3.13h12.11s0-1.43,0-1.55c0-.2-.02-.4.04-.59.16-.49.63-.87,1.13-.98.53-.11,1.63.17,1.63.88v2.23h9.5c1.21,0,2.52,1.3,2.71,2.46.11,10.8.11,21.64,0,32.44-.25,1.41-1.48,2.52-2.92,2.57H16.95c-1.37-.04-2.93-1.4-3.04-2.77v-31.82c-.09-1.24,1.9-2.88,2.99-2.88,0,0,9.45,0,9.45,0,0-.75-.2-1.82.22-2.48.25-.39.69-.65,1.15-.66.07,0,.13,0,.2,0ZM53.65,24.94v-7.4s-.13-.13-.16-.16l-9.42-.03v.83c0,.16-.34.86-.46.99-.33.34-.95.39-1.37.19-.24-.11-.97-.77-.97-1.02v-.83h-12.12c.2,1.09-.9,2.4-2.03,1.84-.22-.11-.77-.6-.77-.84v-1h-9.29c-.11-.04-.35.23-.35.3v7.13h36.94ZM53.65,27.96H16.71v21.03c0,.12.38.32.51.3l36.22-.03c.02-.07.22-.25.22-.27v-21.03Z"/>
    <path class="cls-2" d="M28.82,33.57h17.65c.49.1,1.01.22,1.19.74.31.9-.32,2.09-1.35,2.1h-17.07c-.7,0-1.55-.79-1.59-1.49-.03-.56.6-1.3,1.17-1.35Z"/>
    <path class="cls-2" d="M29.03,40.36h17.38c1.02.21,1.55.96,1.2,1.99-.2.59-.47.79-1.09.85h-17.39c-.86-.1-1.75-.83-1.38-1.76.17-.44.81-1.01,1.29-1.08Z"/>
    <rect class="cls-2" x="22.53" y="33.56" width="2.96" height="2.85"/>
    <rect class="cls-2" x="22.53" y="40.34" width="2.96" height="2.85"/>
  </g>
</svg>