<?xml version="1.0" encoding="UTF-8"?>
<svg id="Layer_1" data-name="Layer 1" xmlns="http://www.w3.org/2000/svg" viewBox="0 0 300 270">
  <defs>
    <style>
      .cls-1 {
        fill: #363636;
      }

      .cls-2 {
        fill: #52c36e;
      }
    </style>
  </defs>
  <path class="cls-2" d="M221.42,333.39c-38.42-3.71-72.2-30.25-83.04-67.41-20.22-69.32,40.45-134.55,111.09-119.37,6.86,1.47,13.37,4.48,19.95,6.75l-10.82,17.44c-6.13-1.58-12.1-3.92-18.42-4.88-66.97-10.14-111.49,68.88-67.93,120.34,46.93,55.43,136.48,17.93,130.45-55.24-.22-2.72-2.35-8.52-1.91-10.54.25-1.17,11.43-18.88,12.78-20.36.36-.4,1.17-1.45,1.52-1.17,17.69,39.65,7.28,86.45-26.72,113.56-13.86,11.05-33.68,19.43-51.46,20.88h-15.48Z"/>
  <path class="cls-1" d="M257.03,134.81l-26.37-4.34.07-156.79c-.57-6.65-2.04-9.09-8.9-9.66l-168.81.03c-9.85.48-8.48,10.59-7.79,17.82l.93.62,137.7.1c14.88,2.62,26.21,13.95,28.25,28.99l.04,120.41-26.36,8.24V13.88c0-1.44-4.51-5.59-6.56-5.04l-171.15-.02c-3.46.1-6.46,1.6-7.27,5.11l.36,251.45c1.87,2.56,4.47,3.94,7.69,3.91l116.05.08,12.11,26.17H3.48c-12.09,0-27.62-14.69-28.83-26.86-1.63-86.48-1.6-173.53-.01-260.01C-24.25-1.65-9.07-17.41,1.16-17.41h17.42v-15.07c0-13.88,16.75-29.54,30.68-29.65l174.9-.14c15.38-.63,32.87,15.19,32.87,30.56v166.51Z"/>
  <path class="cls-2" d="M307.99,131.13c13.43-.94,22.32,13.05,16.54,25.07l-83.43,133.86c-6.7,9.35-19.31,10.33-27.41,1.99l-40.13-57.31c-9.12-19,14.16-34.54,28.49-19.16l23.63,33.58,69.42-110.73c2.8-4.05,7.98-6.95,12.88-7.29Z"/>
  <path id="Path_107" data-name="Path 107" class="cls-1" d="M93.01,108.06h-54.82c-5.94,0-9.18-2.3-10.19-6.92-1.12-4.38,1.53-8.85,5.91-9.96.07-.02.13-.03.2-.05,1.98-.43,4-.62,6.03-.58,35.15-.03,70.3-.03,105.44,0,8.19,0,12.5,2.93,12.64,8.63.15,5.88-4.19,8.93-12.74,8.93h-52.47"/>
  <path id="Path_108" data-name="Path 108" class="cls-1" d="M92.89,138.87h-54.36c-6.95,0-11.27-3.88-10.8-9.43.46-5.01,4.9-8.69,9.9-8.22.1,0,.19.02.29.03,9.1-.11,18.11,0,27.18,0h80.6c8.1,0,12.48,3.08,12.53,8.77.05,5.7-4.37,8.89-12.39,8.89h-52.96"/>
  <path id="Path_109" data-name="Path 109" class="cls-1" d="M92.43,77.32h-53.89c-6.37,0-9.58-2.23-10.56-7.02-1.05-4.46,1.71-8.92,6.17-9.98.16-.04.33-.07.5-.1,1.86-.26,3.73-.36,5.61-.29h105.43c8.43,0,12.44,2.79,12.52,8.61s-4.09,8.79-12.34,8.79h-53.42"/>
</svg>