<?xml version="1.0" encoding="UTF-8"?>
<svg id="Layer_1" data-name="Layer 1" xmlns="http://www.w3.org/2000/svg" xmlns:xlink="http://www.w3.org/1999/xlink" viewBox="0 0 70.27 70.27">
  <defs>
    <style>
      .cls-1, .cls-2 {
        fill: none;
      }

      .cls-2 {
        stroke: #363636;
        stroke-miterlimit: 10;
        stroke-width: 2px;
      }

      .cls-3, .cls-4 {
        fill: #52c36e;
      }

      .cls-4 {
        isolation: isolate;
        opacity: .11;
      }

      .cls-5 {
        clip-path: url(#clippath);
      }
    </style>
    <clipPath id="clippath">
      <rect class="cls-1" x="8.51" y="8.12" width="47.87" height="47.38"/>
    </clipPath>
  </defs>
  <g id="Group_3" data-name="Group 3">
    <path id="Path_7" data-name="Path 7" class="cls-4" d="M36.64,18.34c6.79-.25,12.74,3.97,17.05,9.23,4.39,5.36,7.62,12.12,5.95,18.84-1.64,6.61-7.83,10.55-13.98,13.48-6.11,2.91-12.86,4.82-19.15,2.31-6.8-2.72-12.77-8.31-13.93-15.54-1.1-6.86,4.06-12.57,8.55-17.86,4.25-5,8.96-10.21,15.51-10.45"/>
    <g id="Group_2" data-name="Group 2">
      <g class="cls-5">
        <g id="Group_1" data-name="Group 1">
          <path id="Path_4" data-name="Path 4" class="cls-3" d="M29.99,54.66h-8.7c-.14,0-.25-.11-.25-.25v-21.49c0-.14.11-.25.25-.25h8.69c.14,0,.25.11.25.25h0v21.49c0,.14-.11.25-.25.25"/>
          <rect id="Rectangle_26" data-name="Rectangle 26" class="cls-2" x="21.05" y="32.68" width="9.19" height="21.99" rx=".29" ry=".29"/>
          <path id="Path_5" data-name="Path 5" class="cls-2" d="M15.66,30.96v23.31c0,.14.11.25.25.25h33.35c.14,0,.25-.11.25-.25h0v-23.31c0-.14.11-.25.25-.25h5.54c.14,0,.25-.11.25-.25,0-.07-.03-.13-.08-.18l-22.71-21.25c-.09-.09-.24-.09-.34,0L9.44,30.38c-.1.09-.11.25-.02.35.05.05.11.08.18.08l5.8-.09c.14,0,.25.11.25.24,0,0,0,0,0,0Z"/>
          <circle id="Ellipse_1" data-name="Ellipse 1" class="cls-2" cx="33.55" cy="23.77" r="3.32"/>
          <rect id="Rectangle_27" data-name="Rectangle 27" class="cls-2" x="35.96" y="35.25" width="8.42" height="8.42" rx=".71" ry=".71"/>
        </g>
      </g>
    </g>
  </g>
</svg>