<?xml version="1.0" encoding="UTF-8"?>
<svg id="Layer_1" data-name="Layer 1" xmlns="http://www.w3.org/2000/svg" xmlns:xlink="http://www.w3.org/1999/xlink" viewBox="0 0 70.27 70.27">
  <defs>
    <style>
      .cls-1 {
        fill: none;
      }

      .cls-2 {
        fill: #363636;
      }

      .cls-3, .cls-4 {
        fill: #52c36e;
      }

      .cls-4 {
        isolation: isolate;
        opacity: .11;
      }

      .cls-5 {
        clip-path: url(#clippath);
      }
    </style>
    <clipPath id="clippath">
      <rect class="cls-1" x="10.21" y="6.89" width="49.84" height="49.84"/>
    </clipPath>
  </defs>
  <path id="Path_7-4" data-name="Path 7-4" class="cls-4" d="M35.52,19.57c6.79-.25,12.74,3.97,17.05,9.23,4.39,5.36,7.62,12.12,5.95,18.84-1.64,6.61-7.83,10.55-13.98,13.48-6.11,2.91-12.86,4.82-19.15,2.31-6.8-2.72-12.77-8.31-13.93-15.54-1.1-6.86,4.06-12.57,8.55-17.86,4.25-5,8.96-10.21,15.51-10.45"/>
  <g id="Group_28" data-name="Group 28">
    <rect id="Rectangle_68" data-name="Rectangle 68" class="cls-3" x="28.93" y="44.89" width="12.88" height="10.87"/>
    <g id="Group_27" data-name="Group 27">
      <g class="cls-5">
        <g id="Group_26" data-name="Group 26">
          <path id="Path_80" data-name="Path 80" class="cls-2" d="M55.23,38h-3.39c-.44,0-.8.36-.8.8h0v3.4c0,.44.36.8.8.8h3.4c.44,0,.8-.36.8-.8v-3.4c0-.44-.36-.8-.8-.8h0M54.43,41.4h-1.8v-1.8h1.8v1.8Z"/>
          <path id="Path_81" data-name="Path 81" class="cls-2" d="M55.23,46.69h-3.39c-.44,0-.8.36-.8.8h0v3.4c0,.44.36.8.8.8h3.4c.44,0,.8-.36.8-.8h0v-3.39c0-.44-.36-.8-.8-.8h0M54.43,50.09h-1.8v-1.8h1.8v1.8Z"/>
          <path id="Path_82" data-name="Path 82" class="cls-2" d="M59.13,26.85h-10.26v-3.05c0-.3-.15-.59-.39-.76l-12.4-8.78v-2.44h4.55c.52,0,.93-.42.93-.93v-3.08c0-.52-.42-.93-.93-.93h0s-5.48,0-5.48,0c-.52,0-.93.42-.93.93v6.45l-12.4,8.78c-.25.17-.39.46-.39.76v3.05h-10.26c-.52,0-.93.42-.93.93h0v28.01c0,.52.42.93.93.93h47.98c.52,0,.93-.42.93-.93h0v-28.01c0-.52-.42-.93-.93-.93h0M58.19,31.58h-9.33v-2.87h9.33v2.87ZM39.69,9.97h-3.62v-1.22h3.62v1.22ZM12.08,28.72h9.33v2.87h-9.33v-2.87ZM12.08,33.45h9.33v21.42h-9.33v-21.42ZM23.28,32.52v-8.23l11.86-8.4,11.86,8.4v30.58h-4.68v-13.75c0-.44-.36-.8-.8-.8h-12.76c-.44,0-.8.36-.8.8h0v13.75h-4.68v-22.35ZM40.71,43.98h-11.16v-2.06h11.16v2.06ZM29.56,45.58h4.78v9.29h-4.78v-9.29ZM35.94,45.58h4.78v9.29h-4.78v-9.29ZM48.86,33.45h9.33v21.42h-9.33v-21.42Z"/>
          <path id="Path_83" data-name="Path 83" class="cls-2" d="M18.44,38h-3.4c-.44,0-.8.36-.8.8,0,0,0,0,0,0v3.4c0,.44.36.8.8.8h3.4c.44,0,.8-.36.8-.8h0v-3.4c0-.44-.36-.8-.8-.8h0M17.64,41.4h-1.8v-1.8h1.8v1.8Z"/>
          <path id="Path_84" data-name="Path 84" class="cls-2" d="M18.44,46.69h-3.4c-.44,0-.8.36-.8.8,0,0,0,0,0,0v3.4c0,.44.36.8.8.8h3.39c.44,0,.8-.36.8-.8,0,0,0,0,0,0v-3.4c0-.44-.36-.8-.8-.8h0M17.64,50.09h-1.8v-1.8h1.8v1.8Z"/>
          <path id="Path_85" data-name="Path 85" class="cls-2" d="M35.14,35.2c2.79,0,5.05-2.26,5.05-5.05s-2.26-5.05-5.05-5.05-5.05,2.26-5.05,5.05h0c0,2.79,2.26,5.05,5.05,5.05M35.14,26.96c1.76,0,3.18,1.43,3.18,3.18s-1.43,3.18-3.18,3.18-3.18-1.43-3.18-3.18c0-1.76,1.43-3.18,3.18-3.18"/>
        </g>
      </g>
    </g>
  </g>
</svg>