<?xml version="1.0" encoding="UTF-8"?>
<svg id="Layer_1" data-name="Layer 1" xmlns="http://www.w3.org/2000/svg" xmlns:xlink="http://www.w3.org/1999/xlink" viewBox="0 0 70.27 70.27">
  <defs>
    <style>
      .cls-1 {
        fill: none;
      }

      .cls-2 {
        fill: #363636;
      }

      .cls-3, .cls-4 {
        fill: #52c36e;
      }

      .cls-4 {
        isolation: isolate;
        opacity: .11;
      }

      .cls-5 {
        clip-path: url(#clippath);
      }
    </style>
    <clipPath id="clippath">
      <rect class="cls-1" x="13.9" y="8.12" width="42.48" height="49.29"/>
    </clipPath>
  </defs>
  <path id="Path_7-2" data-name="Path 7-2" class="cls-4" d="M35.52,20.53c6.79-.25,12.74,3.97,17.05,9.23,4.39,5.36,7.62,12.12,5.95,18.84-1.64,6.61-7.83,10.55-13.98,13.48-6.11,2.91-12.86,4.82-19.15,2.31-6.8-2.72-12.77-8.31-13.93-15.54-1.1-6.86,4.06-12.57,8.55-17.86,4.25-5,8.96-10.21,15.51-10.45"/>
  <g id="Group_23" data-name="Group 23">
    <rect id="Rectangle_58" data-name="Rectangle 58" class="cls-3" x="18.67" y="23.73" width="3.09" height="4.29"/>
    <rect id="Rectangle_59" data-name="Rectangle 59" class="cls-3" x="18.92" y="31.45" width="3.09" height="4.29"/>
    <rect id="Rectangle_60" data-name="Rectangle 60" class="cls-3" x="18.62" y="39.13" width="3.09" height="4.29"/>
    <rect id="Rectangle_61" data-name="Rectangle 61" class="cls-3" x="18.82" y="46.4" width="3.09" height="4.29"/>
    <rect id="Rectangle_62" data-name="Rectangle 62" class="cls-3" x="47.23" y="27.07" width="4.62" height="2.92"/>
    <rect id="Rectangle_63" data-name="Rectangle 63" class="cls-3" x="47.32" y="34.57" width="4.62" height="2.92"/>
    <rect id="Rectangle_64" data-name="Rectangle 64" class="cls-3" x="47.18" y="41.79" width="4.62" height="2.92"/>
    <rect id="Rectangle_65" data-name="Rectangle 65" class="cls-3" x="47.42" y="49.4" width="4.62" height="2.92"/>
    <g id="Group_22" data-name="Group 22">
      <g class="cls-5">
        <g id="Group_21" data-name="Group 21">
          <path id="Path_51" data-name="Path 51" class="cls-2" d="M13.9,57.4l.91.02h41.56V23.1c0-.42-.28-.78-.68-.89l-11.24-3.01v-10.15c0-.51-.41-.92-.92-.92h-17.53c-.51,0-.92.41-.92.92h0v9.93h-10.25c-.51,0-.92.41-.92.92h0v37.49ZM25.07,55.57h-9.33V20.83h9.33v34.74ZM42.61,19.9v35.66h-15.69V9.97h15.69v9.94ZM54.53,55.57h-10.08V21.11l10.08,2.7v31.76Z"/>
          <path id="Path_52" data-name="Path 52" class="cls-2" d="M29.56,18.18h3.35c.44,0,.79-.35.79-.79v-3.35c0-.44-.35-.79-.79-.79h-3.35c-.44,0-.79.35-.79.79h0v3.35c0,.44.35.79.79.79M30.35,14.83h1.77v1.77h-1.77v-1.77Z"/>
          <path id="Path_53" data-name="Path 53" class="cls-2" d="M36.62,18.18h3.35c.44,0,.79-.35.79-.79v-3.35c0-.44-.35-.79-.79-.79h-3.35c-.44,0-.79.35-.79.79v3.35c0,.44.35.79.79.79M37.41,14.83h1.77v1.77h-1.77v-1.77Z"/>
          <path id="Path_54" data-name="Path 54" class="cls-2" d="M29.56,25h3.35c.44,0,.79-.35.79-.79v-3.35c0-.44-.35-.79-.79-.79h-3.35c-.44,0-.79.35-.79.79h0v3.35c0,.44.35.79.79.79h0M30.35,21.65h1.77v1.77h-1.77v-1.77Z"/>
          <path id="Path_55" data-name="Path 55" class="cls-2" d="M36.62,25h3.35c.44,0,.79-.35.79-.79v-3.35c0-.44-.35-.79-.79-.79h-3.35c-.44,0-.79.35-.79.79v3.35c0,.44.35.79.79.79M37.41,21.65h1.77v1.77h-1.77v-1.77Z"/>
          <path id="Path_56" data-name="Path 56" class="cls-2" d="M29.56,31.82h3.35c.44,0,.79-.35.79-.79v-3.35c0-.44-.35-.79-.79-.79h-3.35c-.44,0-.79.35-.79.79h0v3.35c0,.44.35.79.79.79h0M30.35,28.47h1.77v1.77h-1.77v-1.77Z"/>
          <path id="Path_57" data-name="Path 57" class="cls-2" d="M18.73,28.35h3.35c.44,0,.79-.35.79-.79h0v-3.35c0-.44-.35-.79-.79-.79h-3.35c-.44,0-.79.35-.79.79,0,0,0,0,0,0v3.35c0,.44.35.79.79.79h0M19.52,25h1.77v1.77h-1.77v-1.77Z"/>
          <path id="Path_58" data-name="Path 58" class="cls-2" d="M18.73,35.93h3.35c.44,0,.79-.35.79-.79v-3.35c0-.44-.35-.79-.79-.79h-3.35c-.44,0-.79.35-.79.79h0v3.35c0,.44.35.79.79.79h0M19.52,32.58h1.77v1.77h-1.77v-1.77Z"/>
          <path id="Path_59" data-name="Path 59" class="cls-2" d="M18.73,43.51h3.35c.44,0,.79-.35.79-.79v-3.35c0-.44-.35-.79-.79-.79h-3.35c-.44,0-.79.35-.79.79v3.35c0,.44.35.79.79.79M19.52,40.16h1.77v1.77h-1.77v-1.77Z"/>
          <path id="Path_60" data-name="Path 60" class="cls-2" d="M18.73,51.09h3.35c.44,0,.79-.35.79-.79v-3.35c0-.44-.35-.79-.79-.79h-3.35c-.44,0-.79.35-.79.79v3.35c0,.44.35.79.79.79M19.52,47.74h1.77v1.77h-1.77v-1.77Z"/>
          <path id="Path_61" data-name="Path 61" class="cls-2" d="M36.62,31.82h3.35c.44,0,.79-.35.79-.79v-3.35c0-.44-.35-.79-.79-.79h-3.35c-.44,0-.79.35-.79.79v3.35c0,.44.35.79.79.79M37.41,28.47h1.77v1.77h-1.77v-1.77Z"/>
          <path id="Path_62" data-name="Path 62" class="cls-2" d="M47.29,30.75h4.41c.44,0,.79-.35.79-.79v-2.27c0-.44-.35-.79-.79-.79h-4.41c-.44,0-.79.35-.79.79v2.27c0,.44.35.79.79.79M48.08,28.47h2.82v.69h-2.82v-.69Z"/>
          <path id="Path_63" data-name="Path 63" class="cls-2" d="M47.29,38.1h4.41c.44,0,.79-.35.79-.79v-2.27c0-.44-.35-.79-.79-.79h-4.41c-.44,0-.79.35-.79.79v2.27c0,.44.35.79.79.79M48.08,35.83h2.82v.69h-2.82v-.69Z"/>
          <path id="Path_64" data-name="Path 64" class="cls-2" d="M47.29,45.46h4.41c.44,0,.79-.35.79-.79v-2.27c0-.44-.35-.79-.79-.79h-4.41c-.44,0-.79.35-.79.79v2.27c0,.44.35.79.79.79M48.08,43.19h2.82v.69h-2.82v-.69Z"/>
          <path id="Path_65" data-name="Path 65" class="cls-2" d="M47.29,52.82h4.41c.44,0,.79-.35.79-.79v-2.27c0-.44-.35-.79-.79-.79h-4.41c-.44,0-.79.35-.79.79v2.27c0,.44.35.79.79.79M48.08,50.55h2.82v.69h-2.82v-.69Z"/>
          <path id="Path_66" data-name="Path 66" class="cls-2" d="M29.56,38.65h3.35c.44,0,.79-.35.79-.79v-3.35c0-.44-.35-.79-.79-.79h-3.35c-.44,0-.79.35-.79.79v3.35c0,.44.35.79.79.79M30.35,35.29h1.77v1.77h-1.77v-1.77Z"/>
          <path id="Path_67" data-name="Path 67" class="cls-2" d="M36.62,38.65h3.35c.44,0,.79-.35.79-.79v-3.35c0-.44-.35-.79-.79-.79h-3.35c-.44,0-.79.35-.79.79h0v3.35c0,.44.35.79.79.79M37.41,35.29h1.77v1.77h-1.77v-1.77Z"/>
          <path id="Path_68" data-name="Path 68" class="cls-2" d="M29.56,45.46h3.35c.44,0,.79-.35.79-.79h0v-3.35c0-.44-.35-.79-.79-.79h-3.35c-.44,0-.79.35-.79.79v3.35c0,.44.35.79.79.79M30.35,42.11h1.77v1.77h-1.77v-1.77Z"/>
          <path id="Path_69" data-name="Path 69" class="cls-2" d="M36.62,45.46h3.35c.44,0,.79-.35.79-.79v-3.35c0-.44-.35-.79-.79-.79h-3.35c-.44,0-.79.35-.79.79v3.35c0,.44.35.79.79.79h0M37.41,42.11h1.77v1.77h-1.77v-1.77Z"/>
          <path id="Path_70" data-name="Path 70" class="cls-2" d="M29.56,52.28h3.35c.44,0,.79-.35.79-.79v-3.35c0-.44-.35-.79-.79-.79h-3.35c-.44,0-.79.35-.79.79v3.35c0,.44.35.79.79.79M30.35,48.93h1.77v1.77h-1.77v-1.77Z"/>
          <path id="Path_71" data-name="Path 71" class="cls-2" d="M36.62,52.28h3.35c.44,0,.79-.35.79-.79v-3.35c0-.44-.35-.79-.79-.79h-3.35c-.44,0-.79.35-.79.79v3.35c0,.44.35.79.79.79M37.41,48.93h1.77v1.77h-1.77v-1.77Z"/>
        </g>
      </g>
    </g>
  </g>
</svg>