<?xml version="1.0" encoding="UTF-8"?>
<svg id="Layer_1" data-name="Layer 1" xmlns="http://www.w3.org/2000/svg" xmlns:xlink="http://www.w3.org/1999/xlink" viewBox="0 0 70.27 70.27">
  <defs>
    <style>
      .cls-1 {
        fill: none;
      }

      .cls-2 {
        fill: #363636;
      }

      .cls-3, .cls-4 {
        fill: #52c36e;
      }

      .cls-4 {
        isolation: isolate;
        opacity: .11;
      }

      .cls-5 {
        clip-path: url(#clippath);
      }
    </style>
    <clipPath id="clippath">
      <rect class="cls-1" x="12.65" y="6.29" width="48.62" height="49.29"/>
    </clipPath>
  </defs>
  <path id="Path_7-3" data-name="Path 7-3" class="cls-4" d="M33.22,18.97c6.79-.25,12.74,3.97,17.05,9.23,4.39,5.36,7.62,12.12,5.95,18.84-1.64,6.61-7.83,10.55-13.98,13.48-6.11,2.91-12.86,4.82-19.15,2.31-6.8-2.72-12.77-8.31-13.93-15.54-1.1-6.86,4.06-12.57,8.55-17.86,4.25-5,8.96-10.21,15.51-10.45"/>
  <g id="Group_25" data-name="Group 25">
    <g class="cls-5">
      <g id="Group_24" data-name="Group 24">
        <path id="Path_72" data-name="Path 72" class="cls-2" d="M37.49,49.87h-15.3c-.01.21-.03.41-.03.6-.01.86.03,1.72-.04,2.57-.08,1.32-1.12,2.38-2.44,2.47-1.51.08-3.03.08-4.54,0-1.29-.1-2.32-1.12-2.44-2.41-.03-.24-.04-.47-.04-.71,0-3.34-.02-6.68.02-10.02.03-.54.18-1.07.43-1.55.36-.7.79-1.36,1.27-1.98.33-.35.7-.67,1.09-.96.22-.16.41-.36.55-.6.91-2.26,1.78-4.53,2.67-6.79.47-1.18,1.61-1.96,2.88-1.96,5.51,0,11.02,0,16.53,0,1.31-.13,2.53.7,2.88,1.97.87,2.24,1.73,4.49,2.63,6.73.15.25.35.47.59.64l.06.05c.68.62,1.29,1.33,1.8,2.1,1.19,1.86.93,1.39.96,4.42.02,2.65,0,5.29,0,7.94,0,2.07-1.11,3.17-3.19,3.17-1.09,0-2.18,0-3.27,0-1.66-.01-3.02-1.35-3.05-3.01-.02-.87,0-1.74,0-2.68M29.8,48.2h14.34c1.25,0,1.32-.37,1.22-2.13-.03-.58-.02-1.16.04-1.73.18-1.55-.27-3.11-1.26-4.32-.37-.46-.93-.73-1.52-.72-5.99.02-11.98.01-17.96.01-2.63,0-5.25,0-7.88,0-.5-.05-.98.22-1.21.66-.33.58-.74,1.12-1.04,1.72-.15.35-.24.73-.25,1.11-.03,1.36-.01,2.73-.01,4.09,0,1.11.21,1.32,1.31,1.32h14.23M41.96,37.66c-.05-.27-.03-.34-.2-.5-1.4-1.37-2.19-3.24-2.19-5.2-.02-1.38-.6-1.8-1.47-1.8-5.51,0-11.02,0-16.53,0-.65-.11-1.27.32-1.4.97-.78,2-1.57,4.01-2.35,6.02-.05.14-.08.29-.15.52h.72c3.32,0,6.64-.01,9.96.01.52,0,.76-.12.91-.67.32-1.38,1.24-2.55,2.5-3.19,2.6-1.36,5.82-.36,7.19,2.24.18.35.32.71.42,1.09.05.19.23.49.36.5.72.05,1.45.02,2.21.02M14.27,49.85h0c0,.92-.02,1.89,0,2.85-.04.65.45,1.21,1.1,1.25.06,0,.12,0,.19,0,1.22.02,2.44.02,3.66,0,.66.07,1.25-.41,1.32-1.06,0-.09,0-.18,0-.27.01-.71-.02-1.42.01-2.13.03-.49-.11-.66-.63-.65-1.85.03-3.71.01-5.65.01M39.14,49.83c0,1.08-.02,2.05,0,3.01.02.6.51,1.08,1.11,1.09,1.35.03,2.69.03,4.03,0,.55.02,1.01-.39,1.05-.94.06-1.07.02-2.14.02-3.16h-6.22M37.77,37.63h0c-.36-1.71-1.92-2.9-3.67-2.8-1.8.08-3.31,1.74-3.24,2.8h6.91Z"/>
        <path id="Path_73" data-name="Path 73" class="cls-2" d="M53.06,25.15v29c0,.25,0,.51-.05.76-.05.38-.39.66-.77.64-.38.01-.72-.27-.77-.65-.04-.25-.06-.51-.05-.76v-28.25q0-.73-.75-.73c-1.15,0-2.3.01-3.45,0-2.56.07-4.7-1.94-4.78-4.51,0-.09,0-.18,0-.27-.02-3.1-.02-6.2,0-9.31-.08-2.55,1.93-4.69,4.48-4.76.1,0,.2,0,.29,0,3.1-.02,6.2-.02,9.31,0,2.55-.07,4.67,1.94,4.75,4.48,0,.1,0,.21,0,.31,0,3.1,0,6.2,0,9.31.07,2.56-1.95,4.68-4.51,4.75-.04,0-.09,0-.13,0-.97.02-1.93,0-2.9,0h-.68M44.05,15.65c0,1.51,0,3.03,0,4.54-.14,1.69,1.11,3.17,2.79,3.31.17.01.34.01.51,0,2.99,0,5.98,0,8.97,0,1.68.15,3.16-1.08,3.31-2.76.02-.18.02-.35,0-.53,0-2.99,0-5.98,0-8.98.15-1.68-1.09-3.17-2.77-3.32-.18-.02-.35-.02-.53,0-2.99-.01-5.98-.01-8.98,0-1.69-.15-3.18,1.11-3.32,2.79-.01.17-.02.34,0,.52,0,1.48,0,2.96,0,4.43"/>
        <path id="Path_74" data-name="Path 74" class="cls-3" d="M41.96,37.66c-.76,0-1.49.03-2.21-.02-.13,0-.31-.31-.36-.5-.74-2.8-3.61-4.48-6.41-3.74-1.79.47-3.19,1.85-3.71,3.62-.15.54-.39.66-.9.66-3.32-.02-6.64-.01-9.96-.01h-.72c.06-.22.1-.37.15-.51.78-2.01,1.56-4.01,2.35-6.02.12-.65.74-1.08,1.4-.97,5.51,0,11.02,0,16.53,0,.56-.07,1.1.26,1.3.79.83,2.12,1.66,4.25,2.48,6.37.03.11.05.22.07.33"/>
        <path id="Path_75" data-name="Path 75" class="cls-2" d="M39.27,46.7c-.66,0-1.31.02-1.97,0-1.23.05-2.26-.91-2.31-2.13,0-.08,0-.16,0-.24,0-.4-.01-.8.01-1.2.05-1.01.82-1.84,1.82-1.96,1.64-.08,3.28-.08,4.92,0,1.05.09,1.86.98,1.86,2.04.02.45.02.91,0,1.37,0,1.09-.84,2.01-1.93,2.09-.8.07-1.6.01-2.41.01v.03M39.31,45.09h1.2c1.48,0,1.53-.05,1.48-1.54-.02-.65-.21-.83-.87-.84-1,0-2.01,0-3.01,0-1.51,0-1.56.06-1.51,1.57.02.6.2.79.79.8.64.01,1.28,0,1.91,0"/>
        <path id="Path_76" data-name="Path 76" class="cls-2" d="M20.39,41.09c.64,0,1.28-.01,1.91,0,1.23-.08,2.29.86,2.37,2.09,0,.1,0,.19,0,.29,0,.33.01.66,0,.98.02,1.21-.93,2.21-2.14,2.23-.03,0-.05,0-.08,0-1.39.04-2.77.04-4.16,0-1.19.05-2.19-.87-2.24-2.06,0-.08,0-.17,0-.25,0-.36-.01-.73,0-1.09-.02-1.15.89-2.11,2.04-2.16.76-.05,1.53-.01,2.3-.01v-.02M20.38,45.08h1.2c1.46,0,1.51-.05,1.48-1.5-.01-.67-.21-.88-.89-.88-.98,0-1.97,0-2.95,0-1.55,0-1.63.09-1.55,1.64.03.49.25.74.74.74h1.97"/>
        <path id="Path_77" data-name="Path 77" class="cls-2" d="M29.85,44.71c-.75,0-1.5,0-2.24,0-.7,0-1.08-.3-1.07-.82,0-.5.37-.79,1.04-.8,1.51,0,3.03,0,4.54,0,.66,0,1.02.31,1.02.82s-.37.79-1.04.8c-.75,0-1.5,0-2.24,0"/>
        <path id="Path_78" data-name="Path 78" class="cls-3" d="M39.31,45.08c-.64,0-1.28,0-1.91,0-.59-.01-.77-.21-.79-.8-.06-1.51,0-1.57,1.51-1.57,1,0,2.01,0,3.01,0,.67,0,.85.19.87.84.05,1.49,0,1.54-1.48,1.54h-1.2"/>
        <path id="Path_79" data-name="Path 79" class="cls-3" d="M20.38,45.08h-1.97c-.49,0-.72-.25-.74-.74-.08-1.54,0-1.64,1.55-1.64.98,0,1.97,0,2.95,0,.68,0,.88.21.89.88.03,1.45-.02,1.5-1.48,1.5h-1.2"/>
      </g>
    </g>
  </g>
</svg>