<?xml version="1.0" encoding="UTF-8"?>
<svg id="Layer_1" data-name="Layer 1" xmlns="http://www.w3.org/2000/svg" xmlns:xlink="http://www.w3.org/1999/xlink" viewBox="0 0 70.27 70.27">
  <defs>
    <style>
      .cls-1 {
        fill: none;
      }

      .cls-2 {
        fill: #363636;
      }

      .cls-3, .cls-4 {
        fill: #52c36e;
      }

      .cls-4 {
        isolation: isolate;
        opacity: .11;
      }

      .cls-5 {
        clip-path: url(#clippath);
      }
    </style>
    <clipPath id="clippath">
      <rect class="cls-1" x="14.38" y="4.62" width="38.01" height="52.76"/>
    </clipPath>
  </defs>
  <path id="Path_127-2" data-name="Path 127-2" class="cls-4" d="M35.66,4.64c9.21-.35,17.27,5.38,23.1,12.5,5.95,7.26,10.32,16.42,8.06,25.54-2.23,8.96-10.61,14.29-18.94,18.26-8.27,3.94-17.44,6.53-25.95,3.13-9.21-3.68-17.31-11.27-18.88-21.06-1.5-9.29,5.5-17.04,11.59-24.21,5.76-6.77,12.14-13.83,21.02-14.17"/>
  <g class="cls-5">
    <path id="Path_104-2" data-name="Path 104-2" class="cls-2" d="M39.99,4.62c.88.33,1.39,1.25,1.22,2.18,1.54,0,3.03-.05,4.52.02.84.02,1.67.16,2.47.41,2.44.86,4.09,3.12,4.18,5.7,0,.21.01.41.01.62,0,12.36,0,24.72,0,37.08.1,2.19-.92,4.28-2.7,5.55-1.12.81-2.48,1.23-3.86,1.2-4.24,0-8.48,0-12.73,0-4.07,0-8.14,0-12.21,0-3.19.06-5.94-2.26-6.42-5.41-.06-.44-.09-.89-.08-1.33,0-12.36.02-24.72-.02-37.09-.12-3.14,2.03-5.92,5.1-6.59.56-.1,1.12-.15,1.69-.15,1.45-.02,2.91,0,4.41,0-.18-.93.34-1.84,1.22-2.18h13.19ZM25.53,10.03c-1.64,0-3.26-.08-4.86.02-1.72.02-3.09,1.43-3.07,3.14,0,.1,0,.19.02.29v37.19c-.16,1.77,1.14,3.34,2.92,3.5.19.02.39.02.58,0,8.19,0,16.38,0,24.57,0,.39,0,.79-.04,1.17-.14,1.49-.41,2.46-1.82,2.32-3.35V13.54c0-.22,0-.45-.02-.67-.13-1.46-1.27-2.63-2.73-2.78-1.69-.09-3.4-.04-5.09-.05-.03,0-.05.04-.08.06-.23,1.82-.58,2.12-2.44,2.12h-10.77c-1.92,0-2.24-.27-2.5-2.17M28.84,8.94h9.09v-1.08h-9.09v1.08Z"/>
    <path id="Path_105-2" data-name="Path 105-2" class="cls-2" d="M45.65,32.14v15.19c0,1.07-.31,1.38-1.38,1.38h-21.74c-1.1,0-1.4-.31-1.4-1.42v-30.39c0-1.14.29-1.43,1.44-1.43h21.64c1.17,0,1.45.28,1.45,1.47v15.19M43.67,17.44h-20.55v29.31h20.55v-29.31Z"/>
    <path id="Path_106-2" data-name="Path 106-2" class="cls-3" d="M33.38,22.65h6.02c.65,0,1.01.26,1.12.76.12.48-.17.97-.65,1.09,0,0-.02,0-.02,0-.23.05-.47.07-.71.06-3.83,0-7.65,0-11.48,0-.17,0-.34,0-.51-.02-.53.02-.97-.39-.99-.92s.39-.97.92-.99c.05,0,.09,0,.14,0,.39-.02.79,0,1.18,0h4.99"/>
    <path id="Path_107-2" data-name="Path 107-2" class="cls-3" d="M33.4,31.32h-6.02c-.65,0-1.01-.25-1.12-.76-.12-.48.17-.97.65-1.09,0,0,.01,0,.02,0,.22-.05.44-.07.66-.06,3.86,0,7.72,0,11.58,0,.9,0,1.37.32,1.39.95.02.65-.46.98-1.4.98h-5.76"/>
    <path id="Path_108-2" data-name="Path 108-2" class="cls-3" d="M33.38,34.7h-5.97c-.76,0-1.24-.43-1.19-1.04.05-.55.54-.95,1.09-.9.01,0,.02,0,.03,0,1-.01,1.99,0,2.99,0h8.85c.89,0,1.37.34,1.38.96,0,.63-.48.98-1.36.98h-5.82"/>
    <path id="Path_109-2" data-name="Path 109-2" class="cls-3" d="M33.33,27.94h-5.92c-.7,0-1.05-.24-1.16-.77-.12-.49.19-.98.68-1.1.02,0,.04,0,.05-.01.2-.03.41-.04.62-.03h11.58c.93,0,1.37.31,1.38.95s-.45.97-1.36.97h-5.87"/>
    <path id="Path_110-2" data-name="Path 110-2" class="cls-2" d="M29.26,45.14c-.96,0-1.92,0-2.88,0-.69,0-1.11-.36-1.13-.93s.42-.97,1.13-.98c1.95-.01,3.91-.01,5.86,0,.72,0,1.15.4,1.13.98s-.44.92-1.14.93c-.99,0-1.99,0-2.98,0"/>
  </g>
</svg>