<?xml version="1.0" encoding="UTF-8"?>
<svg id="Layer_1" data-name="Layer 1" xmlns="http://www.w3.org/2000/svg" xmlns:xlink="http://www.w3.org/1999/xlink" viewBox="0 0 70.27 70.27">
  <defs>
    <style>
      .cls-1 {
        fill: none;
      }

      .cls-2 {
        fill: #363636;
      }

      .cls-3, .cls-4 {
        fill: #52c36e;
      }

      .cls-4 {
        isolation: isolate;
        opacity: .11;
      }

      .cls-5 {
        clip-path: url(#clippath);
      }
    </style>
    <clipPath id="clippath">
      <rect class="cls-1" x="5.42" y="4.62" width="49.44" height="52.76"/>
    </clipPath>
  </defs>
  <path id="Path_126" data-name="Path 126" class="cls-4" d="M35.66,4.64c9.21-.35,17.27,5.38,23.1,12.5,5.95,7.26,10.32,16.42,8.06,25.54-2.23,8.96-10.61,14.29-18.94,18.26-8.27,3.94-17.44,6.53-25.95,3.13-9.21-3.68-17.31-11.27-18.88-21.06-1.5-9.29,5.5-17.04,11.59-24.21,5.76-6.77,12.14-13.83,21.02-14.17"/>
  <g class="cls-5">
    <path id="Path_102" data-name="Path 102" class="cls-2" d="M29.35,18.39v-9.31c0-1.87.86-2.73,2.72-2.72.32,0,.64.03.97.05,1.06-1.61,2.05-2.05,3.69-1.64,1.05.26,1.58,1.03,1.74,2.54h1.11c.96-.08,1.87.42,2.33,1.26.11.13.27.21.44.22.36.02.72-.02,1.08-.02,1.25-.1,2.33.84,2.43,2.08,0,.11,0,.23,0,.34,0,4.67,0,9.33,0,13.99v.71c.24.01.43.03.61.03,1.04-.02,1.92.76,2.03,1.79.05.38.19.48.54.45.97-.19,1.95.25,2.44,1.1.04.08.22.11.34.11.23.01.46-.02.68-.02,1.14-.15,2.19.66,2.34,1.8.02.17.02.34,0,.51,0,3.35.02,6.7,0,10.05.04,1.2-.02,2.39-.19,3.58-.2.93-.57,1.81-1.1,2.59-.49.77-.26,1.54-.3,2.31,0,.06.29.19.45.2.96.06,1.15.26,1.15,1.22v4.63c0,.84-.28,1.12-1.14,1.12-7.4,0-14.81,0-22.21,0-.85,0-1.13-.28-1.13-1.12,0-7.18,0-14.35,0-21.53,0-.96.21-1.19,1.16-1.18.41,0,.62-.1.56-.54-.02-.15-.02-.3,0-.46.05-.58-.15-1.16-.57-1.58-.65-.84-1.23-1.74-1.73-2.67-1.2-2.39-2.88-4.5-4.94-6.21-.55-.41-1.11-.8-1.65-1.22-.58-.34-.9-.98-.83-1.64.15-.65.66-1.16,1.31-1.3,1.62-.56,3.39-.51,4.97.16.21.08.41.17.7.3M31,19.31c.3.03.53.04.75.07,3.38.37,4.47,2.9,4.39,5.44.01.42-.31.77-.73.78-.03,0-.06,0-.09,0-.43.01-.78-.32-.8-.74-.04-.3-.03-.61-.06-.91-.02-1.57-1.26-2.84-2.82-2.91-.39-.05-.8.03-1.19-.03-.35-.01-.68-.13-.96-.34-1.13-1.15-2.74-1.67-4.33-1.41-.34.06-.67.14-1,.23.14.13.28.25.43.36,2.74,1.86,4.96,4.38,6.46,7.33.38.87.88,1.68,1.5,2.41.96.86,1.41,2.15,1.18,3.42-.05.39.11.53.51.52,1.94-.02,3.88,0,5.82-.01.15,0,.29-.03.5-.05v-3.67c0-1.7.78-2.47,2.48-2.46.82,0,1.03-.18,1.12-1.02.02-.25.03-.49.02-.74v-14.5c.03-.34-.22-.64-.56-.67-.02,0-.04,0-.07,0-.25-.02-.49-.02-.74,0-.35-.02-.66.24-.68.6,0,.03,0,.06,0,.09,0,.21,0,.42,0,.63,0,1.81,0,3.62,0,5.43,0,.49-.22.87-.69.89-.32-.04-.62-.19-.84-.43-.13-.12-.1-.43-.1-.65,0-2.32,0-4.64,0-6.97,0-.85-.18-1.02-1.05-1.02s-1.02.14-1.02,1.03v6.8c0,.86-.26,1.26-.81,1.27-.58.02-.84-.39-.84-1.29,0-3.18,0-6.36-.03-9.54,0-.31-.13-.6-.36-.81-.47-.35-1.14-.25-1.49.22-.16.22-.24.5-.2.77v9.76c0,.7-.3,1.07-.83,1.06-.51,0-.79-.38-.81-1.03,0-.3,0-.61,0-.91,0-2.44.01-4.87-.01-7.31,0-.29-.13-.78-.3-.83-.44-.14-.92-.16-1.37-.04-.2.06-.36.59-.37.9-.03,3.2-.02,6.4-.02,9.59v.69M44.54,50.42c2.31,0,4.53,0,6.76-.02.1,0,.28-.23.29-.36.03-.53-.04-1.07.03-1.6.04-.42.19-.83.42-1.18.72-.92,1.13-2.05,1.17-3.22.02-4.11,0-8.22.02-12.34,0-.57-.27-.7-.78-.7-.53,0-.76.17-.75.73.02,1.49.01,2.97,0,4.45.01.21,0,.42-.02.63-.07.44-.48.75-.93.68-.34-.05-.62-.32-.67-.67-.03-.17-.03-.34-.02-.51,0-1.92,0-3.85-.01-5.77,0-.22-.09-.6-.22-.64-.34-.1-.7-.1-1.04,0-.14.04-.23.44-.23.69-.02,1.9,0,3.81,0,5.71,0,.21.05.48-.05.61-.18.27-.44.47-.74.58-.37.07-.72-.17-.8-.53,0,0,0-.02,0-.03-.04-.21-.06-.42-.04-.62,0-2.63,0-5.25,0-7.88,0-.78-.08-.87-.77-.86-.67,0-.73.08-.74.84v6.17c0,.74.01,1.49,0,2.23.04.46-.3.87-.76.91-.02,0-.04,0-.06,0-.48-.02-.85-.43-.83-.91,0,0,0,0,0,0,0-.15,0-.3,0-.46,0-2.21,0-4.42-.01-6.62,0-.25-.09-.49-.28-.66-.34-.25-.83-.18-1.08.17-.12.16-.17.37-.14.57v8.05c0,.16.02.33.04.49l.72.1c2.7.4,3.71,2.46,3.61,4.74.01.41-.31.75-.72.76-.04,0-.08,0-.11,0-.42,0-.77-.33-.78-.75,0,0,0,0,0,0-.02-.17,0-.34-.02-.51.08-1.4-1-2.59-2.4-2.67-.18,0-.35,0-.53.03-.13.02-.27.03-.4.01-.33-.09-.65-.22-.96-.37-.2-.1-.33-.32-.51-.45-1.06-.7-2.37-.91-3.6-.58.85.69,1.63,1.25,2.32,1.89,1.48,1.51,2.72,3.24,3.69,5.12.46.8,1.09,1.5,1.61,2.26.17.24.29.52.33.81.05.53.01,1.06.01,1.7M32.02,35.22v.58c0,6.45,0,12.9,0,19.35,0,.45.12.58.57.58,2.76-.02,5.52,0,8.28-.01.18,0,.36-.02.58-.04v-4.22c0-.73.25-.98.98-1.04.15-.01.44-.1.43-.14.05-.5,0-1-.17-1.47-.5-.93-1.2-1.75-1.74-2.66-1.06-2.1-2.56-3.94-4.4-5.4-.43-.31-.88-.61-1.28-.96-.66-.38-.88-1.22-.5-1.88.19-.34.52-.57.9-.66.67-.26,1.39-.39,2.11-.38.92.08,1.84.23,2.75.44v-2.1h-8.51ZM53.21,52.07h-3.12c-2.15,0-4.3,0-6.44,0-.18,0-.52.15-.52.24-.04,1.11-.02,2.23-.02,3.4h5.48c1.39,0,2.78,0,4.16-.02.15,0,.44-.2.44-.31.03-1.08.02-2.16.02-3.32"/>
    <path id="Path_103" data-name="Path 103" class="cls-3" d="M11.95,34.09v-8.61c-.19-1.22.65-2.36,1.87-2.55.23-.03.46-.03.69,0,.17-.01.34,0,.51.01.35.08.48-.07.63-.37.49-.89,1.49-1.38,2.5-1.21.9-.07,1.75.43,2.14,1.24.14.4.25.8.33,1.22h1.12c.78-.04,1.52.36,1.91,1.03.12.27.41.4.69.32.23-.03.46-.04.68-.02,1.21-.13,2.31.74,2.44,1.96.02.16.02.32,0,.49v12.91c0,.47-.03.95-.08,1.42-.12,1.24-.57,2.43-1.3,3.43-.32.4-.47.91-.42,1.42,0,.17,0,.34,0,.51q0,.92.91.98c.45-.04.84.29.88.74,0,.05,0,.11,0,.16.01,1.88.01,3.77,0,5.65.05.45-.28.86-.73.91-.05,0-.1,0-.15,0-.32.02-.65,0-.97,0h-11.37c-1.17,0-1.35-.19-1.35-1.36,0-1.68,0-3.35,0-5.03,0-.8.25-1.08,1.05-1.07.41,0,.55-.11.57-.54.05-.71-.19-1.41-.66-1.95-.69-.93-1.31-1.91-1.84-2.94-1.29-2.43-3.16-4.51-5.45-6.04-.67-.43-1.31-.97-1.1-1.89s1.01-1.18,1.8-1.37c1.38-.34,2.83-.22,4.14.34.15.06.31.11.56.2M13.59,34.99c.4.06.74.09,1.07.15,2.88.51,3.81,2.75,3.73,5.07.02.41-.3.76-.71.78-.04,0-.07,0-.11,0-.42.02-.79-.3-.81-.73,0-.02,0-.04,0-.06-.02-.28-.02-.57-.05-.85-.06-1.52-1.33-2.7-2.85-2.65-.03,0-.06,0-.1,0-.23-.01-.46,0-.68.01-.42.06-.84-.1-1.11-.43-1.13-1.13-2.78-1.57-4.32-1.14-.12.05-.23.1-.34.18.37.27.68.48.97.72.62.5,1.27.98,1.84,1.53,1.63,1.74,3,3.7,4.08,5.82.41.72,1,1.33,1.47,2.02.23.33.38.7.45,1.1.04.54.05,1.08.02,1.62.1.08.11.1.13.1,2.47,0,4.95.03,7.42.01.11,0,.32-.24.33-.38.04-.59.04-1.18,0-1.77-.04-.5.13-.99.46-1.36.65-.78,1.08-1.72,1.22-2.73.05-.34.09-.68.09-1.02,0-4.44,0-8.87,0-13.31.02-.29-.08-.58-.28-.79-.41-.32-1-.25-1.32.16-.15.19-.22.43-.2.67v4.97c0,.19,0,.38-.02.57-.04.38-.35.67-.74.68-.4.05-.77-.22-.84-.62-.04-.21-.05-.42-.04-.62,0-2.13,0-4.26,0-6.4,0-.69-.16-.85-.83-.85-.82,0-.99.13-.99.87,0,1.92,0,3.85,0,5.77,0,.34.01.69,0,1.03,0,.45-.35.81-.8.82s-.81-.35-.82-.8h0c-.01-.27-.01-.53-.01-.8v-8.34c0-.88-.12-1-.98-.99-.72,0-.83.13-.83,1.01v8.91c0,.15,0,.3-.01.46-.03.42-.38.75-.8.74-.42.03-.79-.29-.83-.71-.03-.17-.04-.34-.03-.51,0-2.49.01-4.99-.02-7.48,0-.29-.11-.57-.32-.76-.42-.3-1.01-.21-1.31.21-.14.2-.2.45-.17.69v9.43M14.6,49.95v4.15h9.84q1.38,0,1.38-1.36v-2.79h-11.22Z"/>
  </g>
</svg>