<?xml version="1.0" encoding="UTF-8"?>
<svg id="Layer_1" data-name="Layer 1" xmlns="http://www.w3.org/2000/svg" xmlns:xlink="http://www.w3.org/1999/xlink" viewBox="0 0 70.27 70.27">
  <defs>
    <style>
      .cls-1 {
        fill: none;
      }

      .cls-2 {
        fill: #363636;
      }

      .cls-3, .cls-4 {
        fill: #52c36e;
      }

      .cls-4 {
        isolation: isolate;
        opacity: .11;
      }

      .cls-5 {
        clip-path: url(#clippath);
      }
    </style>
    <clipPath id="clippath">
      <rect class="cls-1" x="5.98" y="7.7" width="58.19" height="50.39"/>
    </clipPath>
  </defs>
  <path id="Path_124" data-name="Path 124" class="cls-4" d="M35.39,1.97c9.21-.35,17.27,5.38,23.1,12.5,5.95,7.26,10.32,16.42,8.06,25.54-2.23,8.96-10.61,14.29-18.94,18.26-8.27,3.94-17.44,6.53-25.95,3.13-9.21-3.68-17.31-11.27-18.88-21.06-1.5-9.29,5.5-17.04,11.59-24.21,5.76-6.77,12.14-13.83,21.02-14.17"/>
  <path id="Path_115" data-name="Path 115" class="cls-2" d="M8.51,32.9l13.28-23h26.56l13.28,23-13.28,23h-26.56l-13.28-23ZM20.53,7.7l-14.55,25.2,14.55,25.2h29.09l14.55-25.2-14.55-25.2h-29.09Z"/>
  <g class="cls-5">
    <path id="Path_116" data-name="Path 116" class="cls-3" d="M30.23,28.5v-8.29c-.18-1.18.63-2.27,1.8-2.45.22-.03.44-.03.66,0,.16-.01.33,0,.49.01.33.08.46-.07.61-.36.47-.86,1.44-1.33,2.41-1.16.87-.06,1.68.41,2.05,1.2.14.38.24.77.32,1.17h1.08c.75-.04,1.46.34,1.84.99.11.26.4.39.67.31.22-.03.44-.03.66-.02,1.17-.13,2.22.72,2.35,1.88.02.16.02.31,0,.47,0,4.14,0,8.28,0,12.42,0,.46-.03.92-.07,1.37-.11,1.19-.54,2.33-1.25,3.3-.31.39-.45.88-.4,1.37,0,.16,0,.33,0,.49q0,.89.87.94c.43-.04.81.28.85.71,0,.05,0,.1,0,.15.01,1.81.01,3.63,0,5.44.05.43-.27.82-.7.87-.05,0-.1,0-.15,0-.31.02-.62,0-.93,0h-10.94c-1.12,0-1.3-.18-1.3-1.31,0-1.61,0-3.22,0-4.84,0-.77.24-1.04,1.01-1.03.4,0,.53-.1.54-.52.04-.69-.19-1.36-.64-1.88-.67-.89-1.26-1.84-1.78-2.83-1.24-2.34-3.04-4.34-5.24-5.81-.64-.41-1.26-.93-1.06-1.82s.98-1.13,1.74-1.31c1.33-.32,2.73-.21,3.98.32.15.06.3.11.54.19M31.8,29.37c.38.05.71.09,1.03.15,2.77.49,3.66,2.65,3.59,4.88.02.4-.29.73-.68.75-.03,0-.07,0-.1,0-.41.02-.76-.29-.78-.7,0-.02,0-.04,0-.06-.02-.27-.01-.55-.05-.82-.05-1.46-1.28-2.6-2.74-2.55-.03,0-.07,0-.1,0-.22-.01-.44,0-.66.01-.4.06-.81-.1-1.07-.41-1.09-1.09-2.67-1.51-4.16-1.1-.11.04-.22.1-.32.17.35.26.66.46.94.69.6.48,1.22.94,1.77,1.47,1.57,1.67,2.89,3.56,3.92,5.6.39.69.97,1.28,1.41,1.95.22.32.37.68.43,1.06.04.52.05,1.04.02,1.56.09.08.11.1.12.1,2.38,0,4.76.02,7.14.01.11,0,.31-.23.31-.37.04-.57.04-1.13,0-1.7-.03-.48.12-.95.44-1.31.63-.75,1.04-1.66,1.18-2.63.05-.32.08-.65.09-.98,0-4.27,0-8.54,0-12.81.02-.28-.08-.55-.27-.76-.39-.31-.96-.24-1.28.15-.14.18-.21.41-.19.64v4.78c0,.18,0,.37-.02.55-.03.37-.34.65-.71.65-.39.05-.74-.22-.81-.6-.04-.2-.05-.4-.04-.6v-6.16c0-.66-.16-.82-.8-.82-.79,0-.95.13-.96.84,0,1.85,0,3.7,0,5.55,0,.33.01.66,0,.99,0,.43-.34.78-.77.79-.43,0-.78-.34-.79-.77-.01-.26-.01-.51-.01-.77,0-2.68,0-5.35,0-8.03,0-.85-.11-.96-.94-.96-.7,0-.8.13-.8.97v8.58c0,.15,0,.29,0,.44-.03.41-.37.72-.77.71-.41.03-.76-.28-.8-.68-.02-.16-.03-.33-.02-.49,0-2.4,0-4.8-.01-7.2,0-.28-.11-.55-.31-.73-.4-.3-.96-.21-1.26.18-.15.2-.21.44-.17.68v9.07M32.78,43.76v3.99h9.47q1.33,0,1.33-1.31v-2.68h-10.8Z"/>
  </g>
</svg>