<?xml version="1.0" encoding="UTF-8"?>
<svg id="Layer_1" data-name="Layer 1" xmlns="http://www.w3.org/2000/svg" xmlns:xlink="http://www.w3.org/1999/xlink" viewBox="0 0 70.27 70.27">
  <defs>
    <style>
      .cls-1 {
        fill: none;
      }

      .cls-2 {
        fill: #363636;
      }

      .cls-3, .cls-4 {
        fill: #52c36e;
      }

      .cls-4 {
        isolation: isolate;
        opacity: .11;
      }

      .cls-5 {
        clip-path: url(#clippath);
      }
    </style>
    <clipPath id="clippath">
      <rect class="cls-1" x="16.84" y="7.98" width="46.41" height="52.04"/>
    </clipPath>
  </defs>
  <path id="Path_127-3" data-name="Path 127-3" class="cls-4" d="M35.66,4.64c9.21-.35,17.27,5.38,23.1,12.5,5.95,7.26,10.32,16.42,8.06,25.54-2.23,8.96-10.61,14.29-18.94,18.26-8.27,3.94-17.44,6.53-25.95,3.13-9.21-3.68-17.31-11.27-18.88-21.06-1.5-9.29,5.5-17.04,11.59-24.21,5.76-6.77,12.14-13.83,21.02-14.17"/>
  <g class="cls-5">
    <path id="Path_136" data-name="Path 136" class="cls-3" d="M49.46,60.02c-5.1-.47-9.42-3.97-10.92-8.87-1.95-6.6,1.81-13.53,8.41-15.48,2.01-.6,4.15-.67,6.2-.22.89.24,1.77.54,2.62.89l-1.42,2.29c-.8-.25-1.6-.47-2.42-.64-8.81-1.33-14.66,9.06-8.93,15.83,6.17,7.29,17.95,2.36,17.16-7.27-.12-.46-.2-.92-.25-1.39.03-.15,1.5-2.48,1.68-2.68.05-.05.15-.19.2-.15,2.37,5.2.93,11.34-3.51,14.94-1.96,1.53-4.3,2.48-6.77,2.75h-2.04Z"/>
    <path id="Path_137" data-name="Path 137" class="cls-2" d="M54.14,33.91l-3.47-.57V12.71c-.07-.88-.26-1.2-1.16-1.27h-22.2c-1.3.06-1.11,1.39-1.02,2.34l.12.08,18.11.02c1.94.31,3.45,1.86,3.72,3.81v15.84s-3.46,1.08-3.46,1.08v-16.62c0-.19-.59-.73-.86-.66h-22.51c-.44-.04-.84.25-.96.67l.05,33.07c.23.33.61.53,1.01.51h15.27s1.59,3.45,1.59,3.45h-17.57c-1.87-.28-3.38-1.69-3.79-3.53-.21-11.38-.21-22.82,0-34.2.14-1.36,2.14-3.43,3.49-3.43h2.29v-1.98c0-1.83,2.2-3.89,4.04-3.9l23.01-.02c2.24.09,4.07,1.8,4.32,4.02v21.9Z"/>
    <path id="Path_138" data-name="Path 138" class="cls-3" d="M60.85,33.42c1.26-.08,2.34.88,2.41,2.13.03.4-.06.81-.24,1.17l-10.97,17.61c-.71,1.05-2.14,1.33-3.19.62-.15-.1-.29-.22-.41-.36l-5.28-7.54c-.6-1.1-.19-2.48.91-3.08.96-.52,2.15-.29,2.84.56l3.11,4.42,9.13-14.57c.4-.55,1.02-.9,1.7-.96"/>
    <path id="Path_139" data-name="Path 139" class="cls-2" d="M32.57,30.39h-7.21c-.78,0-1.21-.3-1.34-.91-.15-.58.2-1.16.78-1.31,0,0,0,0,0,0h.03c.26-.06.53-.09.79-.08,4.62,0,9.25,0,13.87,0,1.08,0,1.64.39,1.66,1.13.02.77-.55,1.18-1.68,1.18h-6.9"/>
    <path id="Path_140" data-name="Path 140" class="cls-2" d="M32.55,34.44h-7.15c-.92,0-1.48-.51-1.42-1.24.06-.66.64-1.14,1.3-1.08h.04c1.2-.01,2.38,0,3.58,0h10.6c1.07,0,1.64.4,1.65,1.15s-.57,1.17-1.63,1.17h-6.96"/>
    <path id="Path_141" data-name="Path 141" class="cls-2" d="M32.49,26.34h-7.09c-.84,0-1.26-.29-1.39-.92-.14-.59.22-1.17.81-1.31h.06c.24-.05.49-.06.74-.05h13.87c1.11,0,1.64.37,1.65,1.13s-.54,1.16-1.62,1.16h-7.03"/>
  </g>
</svg>