<?xml version="1.0" encoding="UTF-8"?>
<svg id="Layer_1" data-name="Layer 1" xmlns="http://www.w3.org/2000/svg" xmlns:xlink="http://www.w3.org/1999/xlink" viewBox="0 0 70.27 70.27">
  <defs>
    <style>
      .cls-1 {
        fill: none;
      }

      .cls-2 {
        fill: #363636;
      }

      .cls-3, .cls-4 {
        fill: #52c36e;
      }

      .cls-4 {
        isolation: isolate;
        opacity: .11;
      }

      .cls-5 {
        clip-path: url(#clippath);
      }
    </style>
    <clipPath id="clippath">
      <rect class="cls-1" x="6.64" y="4.62" width="48.97" height="49.55"/>
    </clipPath>
  </defs>
  <path id="Path_125" data-name="Path 125" class="cls-4" d="M35.66,4.64c9.21-.35,17.27,5.38,23.1,12.5,5.95,7.26,10.32,16.42,8.06,25.54-2.23,8.96-10.61,14.29-18.94,18.26-8.27,3.94-17.44,6.53-25.95,3.13-9.21-3.68-17.31-11.27-18.88-21.06-1.5-9.29,5.5-17.04,11.59-24.21,5.76-6.77,12.14-13.83,21.02-14.17"/>
  <g class="cls-5">
    <path id="Path_111" data-name="Path 111" class="cls-3" d="M53.47,23.42l-1.42-2.16c-.84.51-1.61,1.13-2.27,1.86v-3.41c1.55-.55,2.58-2.01,2.59-3.66v-3.64c0-1.64-1.04-3.11-2.59-3.66v-2.36h-2.59v2.36c-1.55.55-2.58,2.01-2.59,3.66v3.64c0,1.64,1.04,3.11,2.59,3.66v3.41c-.66-.73-1.43-1.35-2.27-1.86l-1.42,2.16c2.13,1.26,3.5,3.5,3.65,5.97.92-.31,1.93-.52,2.78-.9.38-2.13,1.68-3.98,3.54-5.07M48.49,17.34c-.71,0-1.29-.58-1.29-1.29v-3.63c0-.71.58-1.29,1.29-1.29.71,0,1.29.58,1.29,1.29h0v3.64c0,.71-.58,1.29-1.29,1.29"/>
    <path id="Path_112" data-name="Path 112" class="cls-3" d="M20.68,41.86l-1.6-2.42c-.95.57-1.8,1.27-2.55,2.09v-3.83c1.74-.62,2.9-2.26,2.9-4.1v-4.09c0-1.84-1.16-3.48-2.9-4.1v-2.65h-2.9v2.65c-1.74.62-2.9,2.26-2.9,4.1v4.08c0,1.84,1.16,3.48,2.9,4.1v3.84c-.74-.82-1.6-1.52-2.55-2.09l-1.6,2.42c2.39,1.41,3.93,3.92,4.1,6.7,1.03-.34,2.16-.59,3.11-1.01.43-2.39,1.88-4.47,3.98-5.69M15.08,35.03c-.8,0-1.45-.65-1.45-1.45v-4.08c-.03-.8.6-1.47,1.4-1.5s1.47.6,1.5,1.4c0,.04,0,.07,0,.11v4.08c0,.8-.65,1.45-1.45,1.45"/>
    <path id="Path_113" data-name="Path 113" class="cls-2" d="M11.23,49.36c-1.45.73-3.06,1.51-4.59,2.23v2.58h34.33c2.28-1.13,4.45-2.46,6.49-3.99,4.38-3.26,7.03-6.6,7.87-9.93s-.18-6.58-3.04-9.69c-1-1.06-2.09-2.04-3.26-2.9l-2.9-1.96c-1.25-.76-2.61-1.51-4.09-2.25-4.37-2.18-8.45-4.65-8.66-7.97-.21-3.23,1.56-4.98,5.25-8.33l2.79-2.53h-5.65c-7.33,1.94-21.78,10.3-9.35,21.97,2.58,2.64,4.8,4.91,3.77,8.89-.5,2.99-9.1,8.82-15.9,12.3,0-.03.01-.05.02-.07M52.51,39.54c-.9,4.47-8.17,9.74-12.23,11.73h-13.03c1.23-.87,2.43-1.77,3.59-2.7l-1.83-2.25c-2.24,1.81-4.61,3.47-7.08,4.95h-8.05c6.69-3.31,18.35-10.37,19.12-15.06,1.44-5.57-1.72-8.8-4.51-11.65-7.54-6.81-3.39-12.26,4.33-15.74-1.68,1.87-2.53,4.34-2.34,6.85.31,4.78,5.12,7.81,10.27,10.37,3.49,1.59,6.68,3.78,9.41,6.48,2.18,2.38,2.95,4.67,2.36,7.02"/>
    <path id="Path_114" data-name="Path 114" class="cls-2" d="M41.91,34.04c3.22,3.7,3.63,5.61-.98,8.42l1.5,2.49c6.5-3.85,5.78-8.33,1.69-12.78l-2.21,1.88Z"/>
  </g>
</svg>